<?xml version="1.0"?><svg width="1500" height="490" xmlns="http://www.w3.org/2000/svg">
 <title>brown mountain</title>
 <defs>
  <filter x="-0.173029" y="-0.09185" height="1.1837" width="1.346058" id="filter3211">
   <feGaussianBlur stdDeviation="17.5514" id="feGaussianBlur3213"/>
  </filter>
 </defs>
 <metadata id="metadata7">image/svg+xml</metadata>
 <g>
  <title>Layer 1</title>
  <path d="m-0.000015,489.2771c23.262589,-39.208191 284.659958,-269.874207 493.511917,-270.552551c216.450134,-0.70929 444.014587,228.419617 464.488098,268.963409" stroke-width="5" stroke-miterlimit="4" stroke="#000000" fill-rule="evenodd" fill="#5fa518" id="svg_12"/>
  <g id="svg_1">
   <path d="m0.5,491.940002c13.452675,-53.701172 164.61557,-369.622795 285.391998,-370.552315c125.172974,-0.971939 256.769073,312.845955 268.608002,368.375679" stroke-width="5" stroke-miterlimit="4" stroke="#000000" fill-rule="evenodd" fill="#5fa518" id="path2383"/>
   <path filter="url(#filter3211)" d="m272.269135,489.31192c-18.511566,-11.871582 -42.365448,-102.414001 -53.88472,-117.800629c-10.801483,-14.426758 -44.56427,41.850159 -50.40802,25.683594c-34.33609,-94.965851 6.895309,-208.674408 6.895309,-208.674408c0,0 -59.94088,83.752686 -99.522362,150.782104c-63.975807,108.341797 -67.232282,151.488953 -67.232282,151.488953" stroke-width="1px" fill-rule="evenodd" fill="#3f7f00" opacity="0.3" id="path3205"/>
  </g>
  <g id="svg_5">
   <path d="m401,490.27713c26.564911,-51.961426 325.070923,-357.653091 563.57196,-358.552032c247.182312,-0.940247 507.049011,302.714447 530.42804,356.446289" stroke-width="5" stroke-miterlimit="4" stroke="#000000" fill-rule="evenodd" fill="#5fa518" id="svg_6"/>
   <path filter="url(#filter3211)" d="m937.670288,487.734711c-36.554749,-11.487793 -83.660278,-99.097717 -106.40686,-113.985565c-21.329834,-13.959442 -88.003784,40.494354 -99.543274,24.851135c-67.803223,-91.89035 13.616028,-201.916153 13.616028,-201.916153c0,0 -118.366516,81.03981 -196.528748,145.898544c-126.335388,104.83374 -132.766632,146.58313 -132.766632,146.58313" stroke-width="1px" fill-rule="evenodd" fill="#3f7f00" opacity="0.3" id="svg_7"/>
  </g>
  <g id="svg_2">
   <path d="m305,489.277283c17.1922,-22.688049 210.375122,-156.160889 364.724731,-156.553619c159.968445,-0.410614 328.145264,132.173431 343.275269,155.634033" stroke-width="5" stroke-miterlimit="4" stroke="#000000" fill-rule="evenodd" fill="#5fa518" id="svg_3"/>
   <path filter="url(#filter3211)" d="m652.315063,488.166901c-23.657104,-5.015625 -54.142212,-43.268585 -68.862976,-49.769104c-13.804504,-6.095154 -56.95282,17.681091 -64.420898,10.850739c-43.880432,-40.121735 8.811829,-88.162109 8.811829,-88.162109c0,0 -76.602844,35.384521 -127.187134,63.7034c-81.759705,45.773193 -85.921448,64.002258 -85.921448,64.002258" stroke-width="1px" fill-rule="evenodd" fill="#3f7f00" opacity="0.3" id="svg_4"/>
  </g>
  <g id="svg_8">
   <path d="m945,484.27713c13.501038,-48.193573 165.209717,-331.718445 286.422363,-332.552216c125.624756,-0.872086 257.695923,280.76358 269.577637,330.599121" stroke-width="5" stroke-miterlimit="4" stroke="#000000" fill-rule="evenodd" fill="#5fa518" id="svg_9"/>
   <path filter="url(#filter3211)" d="m1217.750244,481.919006c-18.578125,-10.654724 -42.518433,-91.911774 -54.078857,-105.720062c-10.840454,-12.947174 -44.72583,37.557983 -50.590576,23.049103c-34.459473,-85.227051 6.920166,-187.274536 6.920166,-187.274536c0,0 -60.157227,75.163391 -99.881287,135.318939c-64.207031,97.231873 -67.475464,135.953857 -67.475464,135.953857" stroke-width="1px" fill-rule="evenodd" fill="#3f7f00" opacity="0.3" id="svg_10"/>
  </g>
 </g>
</svg>